<?xml version="1.0" encoding="UTF-8" standalone="no"?>
<!-- Uploaded to: SVG Repo, www.svgrepo.com, Generator: SVG Repo Mixer Tools -->

<svg
   width="32"
   height="32"
   viewBox="0 0 1.44 1.44"
   aria-hidden="true"
   role="img"
   class="iconify iconify--twemoji"
   preserveAspectRatio="xMidYMid"
   version="1.1"
   id="svg5"
   sodipodi:docname="light-off.svg"
   inkscape:version="1.4.3 (0d15f75042, 2025-12-25)"
   inkscape:export-filename="light-off.png"
   inkscape:export-xdpi="1536"
   inkscape:export-ydpi="1536"
   xmlns:inkscape="http://www.inkscape.org/namespaces/inkscape"
   xmlns:sodipodi="http://sodipodi.sourceforge.net/DTD/sodipodi-0.dtd"
   xmlns="http://www.w3.org/2000/svg"
   xmlns:svg="http://www.w3.org/2000/svg">
  <defs
     id="defs5" />
  <sodipodi:namedview
     id="namedview5"
     pagecolor="#ffffff"
     bordercolor="#000000"
     borderopacity="0.25"
     inkscape:showpageshadow="2"
     inkscape:pageopacity="0.0"
     inkscape:pagecheckerboard="0"
     inkscape:deskcolor="#d1d1d1"
     inkscape:zoom="10.86116"
     inkscape:cx="45.989562"
     inkscape:cy="28.219822"
     inkscape:window-width="3836"
     inkscape:window-height="2101"
     inkscape:window-x="0"
     inkscape:window-y="0"
     inkscape:window-maximized="0"
     inkscape:current-layer="svg5" />
  <g
     id="g5"
     transform="matrix(1.2621919,0,0,1.2621919,0.26561092,-1.4216375e-8)">
    <path
       fill="#FFD983"
       d="m 0.72,0.35738182 c 0,0.21073091 -0.1636364,0.24345818 -0.1636364,0.43985454 0,0.10138914 -0.1022072,0.10993094 -0.18,0.10993094 -0.067189,0 -0.2155418,-0.025495 -0.2155418,-0.10999639 C 0.1608218,0.60087273 0,0.56814545 0,0.35738182 0,0.16000364 0.1729636,0 0.3627164,0 0.5525345,0 0.72,0.16000364 0.72,0.35738182 Z"
       id="path1"
       style="fill:#fff0cf;fill-opacity:1;stroke-width:0.0327273" />
    <path
       fill="#ccd6dd"
       d="m 0.4963745,1.0590545 c 0,0.027098 -0.073113,0.081818 -0.1363745,0.081818 -0.063262,0 -0.1363745,-0.05472 -0.1363745,-0.081818 0,-0.027098 0.07308,-0.016364 0.1363745,-0.016364 0.063262,0 0.1363745,-0.010735 0.1363745,0.016364 z"
       id="path2"
       style="stroke-width:0.0327273" />
    <path
       fill="#FFCC4D"
       d="m 0.5140473,0.33228 a 0.03269455,0.03269455 0 0 0 -0.046276,0 L 0.36,0.44005091 0.2522291,0.33228 a 0.03272233,0.03272233 0 1 0 -0.046276,0.0462764 l 0.12132,0.12132 v 0.34645091 a 0.0327275,0.0327275 0 1 0 0.065455,0 V 0.49987636 l 0.12132,-0.12132 a 0.03269455,0.03269455 0 0 0 -8e-7,-0.0462764 z"
       id="path3"
       style="fill:#ffe39e;fill-opacity:1;stroke-width:0.0327273" />
    <path
       fill="#99aab5"
       d="m 0.5563636,1.0099636 a 0.06545455,0.06545455 0 0 1 -0.065455,0.065455 H 0.2290909 A 0.06545455,0.06545455 0 0 1 0.1636364,1.0099636 V 0.8136 h 0.3927272 z"
       id="path4"
       style="stroke-width:0.0327273" />
    <path
       fill="#ccd6dd"
       d="m 0.1636036,1.0426909 a 0.03272727,0.03272727 0 0 1 -0.00533,-0.064996 L 0.5509964,0.91224 a 0.03253091,0.03253091 0 0 1 0.037636,0.026902 0.03269455,0.03269455 0 0 1 -0.026902,0.037636 L 0.1690031,1.042232 a 0.03033818,0.03033818 0 0 1 -0.0054,4.589e-4 z m 0,-0.1309091 A 0.03272727,0.03272727 0 0 1 0.1582736,0.8467854 L 0.5510009,0.7813309 a 0.03256364,0.03256364 0 0 1 0.037636,0.0269018 0.03269455,0.03269455 0 0 1 -0.026902,0.0376364 L 0.1690036,0.9113236 a 0.03033818,0.03033818 0 0 1 -0.0054,4.582e-4 z"
       id="path5"
       style="stroke-width:0.0327273" />
  </g>
</svg>
